<svg height="511pt" viewBox="0 -7 511.99909 511" width="511pt" xmlns="http://www.w3.org/2000/svg" xmlns:xlink="http://www.w3.org/1999/xlink"><linearGradient id="a" gradientUnits="userSpaceOnUse" x1="255.9996998325" x2="255.9996998325" y1=".4998423575" y2="498.3902893075"><stop offset="0" stop-color="#367FBF"/><stop offset="1" stop-color="#367FBF"/></linearGradient><path d="m482.539062 156.089844c39.109376-39.105469 39.304688-102.550782.433594-141.421875l-14.167968-14.167969-29.765626 29.871094c-38.824218-26.101563-92.0625-21.996094-126.394531 12.335937l-283.355469 284.96875c-19.050781 19.050781-28.785156 43.9375-29.2226558 68.960938-.0351562.890625-.0664062 1.785156-.0664062 2.683593h.0585938c.2343752 25.296876 9.9726562 50.523438 29.2304682 69.78125 18.890626 18.886719 44 29.289063 70.714844 29.289063 26.710938 0 51.824219-10.402344 70.738282-29.316406l.1875-.191407.21875.21875c1.859374-1.863281 3.613281-3.789062 5.300781-5.753906l102.15625-102.542968 125.5625 125.558593 13.054687-72.507812 72.355469-11.789063-126.28125-126.28125zm-299.035156 185.992187 79.820313-78.9375c3.742187 7.914063 5.714843 16.625 5.714843 25.636719 0 16.027344-6.238281 31.097656-17.574218 42.429688l.078125.078124-52.007813 52.207032c-2.125-14.59375-7.453125-28.789063-16.03125-41.414063zm40.046875-153.042969.382813.382813c11.332031-11.332031 26.398437-17.574219 42.425781-17.574219s31.09375 6.242188 42.425781 17.574219c11.335938 11.332031 17.574219 26.398437 17.574219 42.425781 0 13.917969-4.710937 27.105469-13.367187 37.757813l-4.953126 4.96875c-3.011718-21.320313-12.792968-41.007813-28.289062-56.503907-15.585938-15.589843-35.417969-25.390624-56.886719-28.34375zm242.835938-129.441406c10.429687 22.222656 6.355469 49.722656-12.15625 68.234375l-88.941407 89.277344c-2.132812-14.535156-7.421874-28.296875-15.519531-40.476563zm-125.417969 11.355469c11.679688-11.679687 27.019531-17.515625 42.359375-17.515625 9.113281 0 18.226563 2.058594 26.570313 6.179688l-88.433594 88.75c-12.578125-8.34375-26.847656-13.679688-41.90625-15.65625zm-240.964844 387.4375c-16.027344 0-31.097656-6.242187-42.429687-17.574219-11.648438-11.648437-17.492188-26.933594-17.535157-42.242187.394532-11.507813 9.859376-20.757813 21.460938-20.757813 13.226562 0 22.535156 9.332032 22.535156 15.503906v40.5l39.96875-38v-2.5c0-26.160156-21.851562-48.78125-49.644531-54.242187l92.226563-92.75.023437.027344c11.335937-11.332031 26.402344-17.574219 42.429687-17.574219 9.199219 0 18.074219 2.0625 26.117188 5.957031l-107.867188 106.679688 16.308594 14.851562c21.511719 21.824219 22.617188 56.390625 3.441406 79.921875l-4.609374 4.625c-11.332032 11.332032-26.398438 17.574219-42.425782 17.574219zm282.863282-79.46875-4.511719 25.0625-71.519531-71.519531 28.230468-28.339844 71.015625 71.015625zm0 0" fill="url(#a)"/></svg>