<svg height="512pt" viewBox="0 0 512 511" width="512pt" xmlns="http://www.w3.org/2000/svg" xmlns:xlink="http://www.w3.org/1999/xlink"><linearGradient id="a" gradientUnits="userSpaceOnUse" x1="256" x2="256" y1=".500776" y2="512.475976"><stop offset="0" stop-color="#46aef7"/><stop offset="1" stop-color="#46aef7"/></linearGradient><path d="m512 173.476562c0-33.085937-26.914062-60-60-60h-22.082031c34.253906-22.242187 58.996093-53.355468 72.914062-92.265624l-37.664062-13.46875c-9.152344 25.589843-23.996094 46.652343-44.355469 63.09375.046875-13.375-3.730469-26.496094-11.121094-38.023438-20.910156-32.609375-64.457031-42.125-97.070312-21.214844-23.53125 15.09375-43.296875 46.257813-56.621094 72.066406-13.324219-25.808593-33.089844-56.972656-56.621094-72.066406-32.613281-20.914062-76.160156-11.394531-97.070312 21.214844-7.335938 11.441406-11.109375 24.457031-11.121094 37.730469-18.695312-15.078125-34.558594-35.417969-44.355469-62.800781l-37.664062 13.46875c13.917969 38.90625 38.660156 70.023437 72.914062 92.265624h-22.082031c-33.085938 0-60 26.914063-60 60v76h40v203c0 33.082032 26.914062 60 60 60h312c33.085938 0 60-26.917968 60-60v-203h40zm-177.785156-128.207031c14.046875-9.007812 32.800781-4.90625 41.804687 9.136719 4.363281 6.804688 5.816407 14.898438 4.09375 22.796875-1.726562 7.894531-6.425781 14.644531-13.230469 19.007813-6.777343 4.347656-15.058593 7.601562-24.035156 10.011718-14.796875 3.285156-28.96875 5.042969-41.3125 5.917969-5.046875.25-9.960937.359375-14.605468.359375-.15625 0-.316407 0-.476563-.003906 11.691406-24.316406 29.761719-55.683594 47.761719-67.226563zm-189.101563 50.941407c-6.800781-4.363282-11.5-11.113282-13.226562-19.007813-1.726563-7.898437-.269531-15.992187 4.09375-22.796875 5.769531-9 15.542969-13.914062 25.515625-13.914062 5.589844 0 11.242187 1.542968 16.289062 4.777343 18.175782 11.65625 36.117188 42.761719 47.820313 67.226563-.179688 0-.359375 0-.535157 0-4.355468 0-8.949218-.09375-13.667968-.3125-13.078125-.902344-28.289063-2.804688-44.1875-6.496094-8.230469-2.351562-15.8125-5.445312-22.101563-9.476562zm-105.113281 77.265624c0-11.027343 8.972656-20 20-20h176v56h-196zm40 279v-203h156v223h-136c-11.027344 0-20-8.972656-20-20zm352 0c0 11.027344-8.972656 20-20 20h-136v-223h156zm40-243h-196v-56h176c11.027344 0 20 8.972657 20 20zm0 0" fill="url(#a)"/></svg>