<svg height="512pt" viewBox="0 0 512 512" width="512pt" xmlns="http://www.w3.org/2000/svg" xmlns:xlink="http://www.w3.org/1999/xlink"><linearGradient id="a" gradientUnits="userSpaceOnUse" x1="256" x2="256" y1="0" y2="512"><stop offset="0" stop-color="#46aef7"/><stop offset="1" stop-color="#46aef7"/></linearGradient><path d="m45 192h-45v-40h45zm-26.574219 79 17.992188 35.726562 42.441406-21.371093-17.992187-35.726563zm59.433594-215.40625-41.441406-20.871094-17.992188 35.726563 41.441407 20.867187zm415.714844 14.855469-17.992188-35.726563-41.441406 20.871094 17.992187 35.722656zm-236.574219 49.550781c28.121094 0 51 22.878906 51 51h40c0-50.179688-40.820312-91-91-91zm210 32v40h45v-40zm9.132812 221h35.867188v40h-35.867188c-1.894531 7.328125-4.816406 14.242188-8.582031 20.605469l25.394531 25.394531-28.285156 28.285156-25.394531-25.394531c-6.261719 3.703125-13.0625 6.585937-20.265625 8.480469v35.628906h-40v-35.453125c-7.453125-1.890625-14.484375-4.835937-20.941406-8.65625l-25.394532 25.394531-28.285156-28.285156 25.394532-25.394531c-3.765626-6.363281-6.6875-13.277344-8.578126-20.605469h-36.195312v-40h36.195312c1.890626-7.328125 4.8125-14.246094 8.578126-20.605469l-25.394532-25.394531 28.285156-28.285156 25.394532 25.394531c6.457031-3.820313 13.488281-6.765625 20.941406-8.65625v-35.453125h40v35.628906c7.203125 1.894532 14.003906 4.777344 20.265625 8.480469l25.394531-25.394531 28.285156 28.285156-25.394531 25.394531c3.765625 6.363281 6.6875 13.277344 8.582031 20.605469zm-77.472656 60c22.058594 0 40-17.945312 40-40s-17.941406-40-40-40c-8.585937 0-16.542968 2.730469-23.066406 7.355469l-9.578125 9.574219c-4.625 6.523437-7.355469 14.480468-7.355469 23.070312 0 22.054688 17.945313 40 40 40zm-131.300781 39h-30.472656c-11.027344 0-20-8.972656-20-20v-39h29.113281v-40h-31.433594c-6.480468-35.558594-25.5-60.585938-44.007812-84.941406-23.851563-31.386719-46.386719-61.042969-46.558594-116.566406.273438-72.554688 59.382812-131.492188 132-131.492188s131.726562 58.9375 132 131.492188c-.09375 30.171874-6.796875 52.695312-16.71875 72.019531 8.988281-1.644531 18.253906-2.511719 27.71875-2.511719 5.660156 0 11.242188.316406 16.742188.914062 7.339843-19.453124 12.128906-42.183593 12.253906-69.914062l.003906-1.144531h-.003906c-.617188-94.316407-77.535156-170.855469-171.996094-170.855469s-171.378906 76.539062-171.996094 170.855469l-.003906 1.144531h.003906c.316406 68.6875 29.203125 106.699219 54.707032 140.261719 21.328124 28.070312 38.289062 50.242187 38.289062 87.148437v52.589844c0 33.085938 26.804688 60 59.890625 60h38.222656c7.667969 0 15-1.460938 21.746094-4.097656-11.558594-10.371094-21.523437-22.472656-29.5-35.902344zm0 0" fill="url(#a)"/></svg>